Patient4_TMGait_0pt3_01_right_19_EMG.mot
version=1
nRows=29
nColumns=33
inDegrees=no
endheader
time	1LAddLong	2LGlutMax	3LGlutMed	4LIliopsoas	5LSemiMemb	6LBicFemLong	7LRecFem	8LVastMed	9LVastLat	10LGasMed	11LTibAnt	12lTibPost	13LPeroneusLong	14LSol	15LExtDigLong	16LFlexDigLong	17RAddLong	18RGlutMax	19RGlutMed	20RIliopsoas	21RSemiMemb	22RBicFemLong	23RRecFem	24RVastMed	25RVastLat	26RGasMed	27RTibAnt	28RTibPost	29RPeroneusLong	30RSol	31RExtDigLong	32RFlexDigLong
35.88	-0.007477	0.06012	-0.063171	0.006561	0.00946	-0.03891	0.011902	0.002594	-0.044708	-0.012512	0.009308	-0.004883	0.014343	-0.005493	-0.003357	0.000916	0.018616	-0.000305	0.058136	-0.006714	0.000763	-0.054169	0.008392	-0.048676	-0.18829	0.010376	-0.66513	0.012665	0.12695	-0.11002	-0.002289	-0.001068
35.881	-0.021667	-0.049286	0.067291	0.010986	0.020905	0.085754	0.023346	0.003204	-0.005341	-0.010834	0.003204	0.004883	0.010529	0.023193	-0.003052	-0.004272	0.039368	-0.05188	-0.016785	0.051575	0.025024	-0.038147	0.11002	-0.076904	-0.28351	0.010223	-0.76813	-0.003052	0.24124	-0.097504	-0.002747	-0.010681
35.882	-0.041504	-0.030518	0.092468	0.00824	-0.036316	0.21042	0.06424	0.012817	-0.011292	-0.009003	-0.003662	0.001678	0.006561	0.022125	-0.000916	-0.005035	0.027313	-0.084991	-0.10315	0.092163	0.00473	0.063171	0.071411	-0.078125	-0.25894	-0.000458	-0.37247	-0.001373	0.10757	-0.1651	0.000763	-0.009918
35.883	-0.051117	-0.036926	0.036163	0.009766	-0.11429	0.35812	0.072784	0.016022	-0.019989	-0.012207	-0.002899	-0.016022	0.013123	0.005341	0.002441	0	0.024261	-0.088043	0.066223	0.031281	-0.15533	0.067291	-0.065155	-0.019989	-0.11368	-0.000305	-0.15686	0.001678	-0.01358	-0.17151	0.000305	-0.010681
35.884	-0.036774	-0.045929	0.048828	0.005798	-0.22369	0.32272	0.054016	0.015564	0.011292	-0.007935	-0.001831	-0.007019	0.009766	0.011139	0.001831	-0.009918	-0.008545	-0.10284	0.33783	0.024719	-0.051575	0.058746	-0.32776	-0.007782	-0.061493	-0.006714	0.061188	-0.00061	-0.095062	-0.081177	0.003052	-0.017242
35.885	-0.002899	-0.027924	0.044098	0.007629	-0.2301	0.21027	0.007935	-0.001221	-0.010834	-0.010071	0.005035	-0.001678	0.007629	0.009155	-0.000153	-0.00412	-0.019073	-0.067749	-0.15045	0.012512	0.095062	0.045319	-0.18738	0.024567	-0.054169	0.000763	0.33356	-0.002594	-0.17334	-0.079041	-0.008545	-0.014038
35.886	0.039978	-0.050812	0.019684	0.004883	-0.027161	0.10513	-0.062866	-0.01297	-0.024872	-0.009155	-0.004272	-0.006256	0.013428	0.020752	-0.010529	-0.009155	-0.036316	-0.057831	-0.3508	0.009613	0.069275	0.075531	-0.093384	0.063324	0.093994	-0.000153	0.71335	-0.001068	-0.16434	-0.16464	0.001678	-0.018463
35.887	0.045013	-0.087585	0.005035	0.004578	0.1355	-0.038452	-0.13855	-0.010223	-0.020447	-0.011292	0.007477	-0.003052	0.012207	0.011902	-0.02243	-0.013885	-0.028992	-0.070496	-0.41687	-0.050201	-0.054626	0.094604	-0.072021	0.055695	0.10025	0.003967	0.62088	0.003815	0.013733	-0.21927	-0.000458	-0.012665
35.888	0.028076	-0.075989	-0.013275	0.007477	0.17349	-0.2803	-0.15579	-0.001068	0.061951	-0.018005	-0.000916	-0.008392	0.006866	0.002747	-0.010376	-0.006714	0.012817	-0.045776	0.31311	-0.02182	-0.093842	0.07843	0.009918	0.062561	-0.015106	0.012512	0.4071	-0.000916	0.14908	-0.24338	-0.007629	-0.006714
35.889	0.013733	-0.040436	0.006714	-0.004425	0.12436	-0.31708	-0.11597	-0.00351	0.13504	-0.015564	-0.002594	-0.001068	0.00061	0.011292	-0.002899	-0.003967	0.025482	0.019989	0.61462	0.034637	-0.026855	0.0354	-0.085602	0.10849	0.015717	0.011902	-0.98694	-0.000153	0.20523	-0.17654	-0.001831	-0.011292
35.89	-0.005798	-0.046082	-0.008087	-0.007019	0.052948	-0.27115	-0.013275	-0.000153	0.16098	-0.020447	0.003967	-0.009003	0.024567	0.021667	-0.002594	-0.004883	0.020447	-0.024872	0.089264	0.016327	0.11993	-0.022583	-0.26642	0.13489	0.17975	0.006561	-1.1612	-0.001831	0.121	-0.064697	0.00061	-0.00885
35.891	-0.019226	-0.048676	-0.029602	0.001678	-0.057068	-0.19394	0.047302	-0.005341	0.1062	-0.009308	0.009155	-0.003967	0.010986	0.02182	0.001526	-0.007782	-0.00061	0.014343	0.45807	-0.009918	0.12192	-0.070648	-0.26138	0.074615	0.18814	0.001526	-0.54199	-0.007019	0.11322	-0.009003	-0.007935	-0.006866
35.892	-0.026855	-0.018158	0.006409	-0.015869	-0.1149	-0.23392	0.05127	-0.00412	0.021515	-0.000153	-0.002136	-0.00351	0.011597	0.024414	-0.002136	-0.00473	0.011292	-0.009003	0.51559	0.001678	0.1207	-0.1059	-0.16144	0.019684	0.14557	0.001678	0.0177	-0.000916	0.010529	0.031281	-0.004425	-0.021667
35.893	-0.035553	-0.027924	0.054779	0.000305	-0.099792	-0.31906	0.028229	0.004883	-0.026398	0.006866	0.005646	-0.00824	0.032043	0.018005	-0.006409	-0.005188	0.029755	-0.028381	0.17288	-0.015869	0.055237	-0.093994	0.067902	-0.042877	0.36941	0.003204	-0.27603	-0.001526	0.051727	0.068817	-0.00473	-0.014496
35.894	-0.040588	-0.002899	0.015869	-0.00473	-0.066071	-0.35019	0.036621	0.01236	-0.05661	-0.000763	-0.001373	0.003967	0.021362	-0.000916	-0.019836	-0.002136	0.028839	-0.066833	0.12329	-0.05188	-0.010071	-0.091248	0.25589	-0.077972	0.47653	0.004883	-0.27161	0.006409	0.007782	0.12131	-0.001831	-0.015259
35.895	-0.031128	-0.012207	-0.011444	0.008087	-0.036926	-0.31586	-0.013275	0.0177	-0.020142	-0.002441	0.000763	0.003204	0.019073	0.024567	-0.01358	0.001678	0.025024	-0.10666	-0.34454	-0.004425	0.012207	-0.021057	0.22553	-0.1181	0.67932	-0.00061	0.032349	-0.002136	-0.033722	0.18585	-0.006256	-0.014191
35.896	0.014343	-0.015717	-0.024567	0.007477	-0.002747	-0.31418	-0.058746	0.011597	0.028534	-0.008545	0.004883	0.005646	0.021973	-0.007629	-0.011444	-0.001678	-0.012817	-0.10361	0.086212	-0.015564	-0.097046	0.11932	0.074005	-0.12619	0.69336	0.001068	-0.028076	-0.002136	-0.079346	0.21957	-0.002136	-0.02243
35.897	0.026093	-0.006561	0.029297	-0.006409	0.042572	-0.20813	-0.098114	-0.000305	0.071564	-0.017395	-0.002136	0.007172	0.010529	0.003052	-0.009308	0.005341	-0.034485	-0.11047	0.55374	-0.10895	-0.12482	0.2359	-0.28793	-0.10696	0.49927	-0.002441	-0.021362	-0.002441	-0.076599	0.1651	-0.001373	-0.020447
35.898	0.029755	-0.001068	0.036163	-0.006256	0.24994	0.036926	-0.11368	-0.003357	0.11795	-0.017242	-0.001068	0.002594	0.021515	-0.009918	-0.011292	0.010223	-0.041809	-0.045319	0.028076	-0.17746	0.13687	0.14191	-0.41794	0.16098	0.24857	0.008698	0.021057	-0.005646	-0.010223	0.15137	-0.009003	-0.014954
35.899	0.03891	-0.035095	0.028687	0.004578	0.21942	0.19302	-0.040588	-0.000153	0.12497	-0.020142	-0.005798	0.01297	0.001984	-0.005493	-0.010071	0.016785	-0.011139	-0.1004	-0.33264	-0.18906	0.2269	0	-0.27298	0.34668	-0.16373	0.001068	-0.066223	-0.002747	0.054016	0.10147	-0.000153	-0.023193
35.9	0.024109	-0.030823	0.03067	0.023804	0.11505	0.21652	0.002136	-0.000458	0.080109	-0.011902	0.016632	0.003815	-0.006561	-0.003967	-0.00061	0.008392	-0.011292	-0.01358	-0.27191	-0.13855	0.063629	-0.013885	-0.070496	0.38254	-0.73746	-0.000458	-0.065308	-0.003357	0.002136	0.054169	0	-0.017395
35.901	0.018311	-0.02243	0.029144	0.020599	0.083466	0.18097	0.022736	-0.001831	0.034943	-0.002136	0.006256	0.007629	-0.001678	-0.014191	0.00061	0.013428	-0.009003	-0.076904	-0.080109	0.05249	-0.015869	-0.023193	0.11978	0.37796	-0.96146	0.004578	-0.000305	-0.00061	0.004425	0.036926	0.004578	-0.022125
35.902	0.021515	-0.02655	-0.005188	0.014648	0.062103	0.14069	0.008087	-0.017548	0.016327	-0.00061	0.001526	0.007019	0.006409	-0.007782	-0.001221	0.016785	0.020905	-0.066681	0.031128	0.22385	-0.019073	0.086975	0.19989	0.19974	-0.92392	0.005951	0.13718	0.001068	-0.024109	0.055542	-0.000916	-0.02533
35.903	0.036926	-0.025787	-0.006104	0.009308	0.036316	0.11398	-0.006866	-0.013275	-0.005188	-0.005493	0.002594	0.000763	0.018311	-0.014648	-0.000153	0.008545	0.00473	-0.057526	0.24933	0.29694	0.014648	0.12787	0.017853	-0.081177	-0.1181	-0.001984	0.14267	-0.002136	-0.029144	0.088043	-0.006714	-0.023804
35.904	0.038605	-0.065918	0.049591	0.017395	0.054321	0.069885	0.007019	-0.007935	-0.055542	-0.011292	0.019226	0.006104	0.024719	-0.00824	0.001373	0.018158	-0.022278	-0.070038	0.2359	0.22614	0.028534	0.12192	-0.039215	-0.19379	0.37857	-0.005493	0.19775	-0.000153	-0.070343	0.076447	-0.00351	-0.021362
35.905	0.027313	-0.0914	0.050354	-0.005646	0.062714	0.044708	0.011749	-0.014648	-0.009613	-0.01236	-0.022278	0.00473	0.02243	-0.015869	-0.002289	0.024719	-0.014343	-0.12985	-0.16495	0.17151	0.038757	0.050507	-0.20432	-0.076141	0.37811	-0.007324	0.14893	-0.000916	0.00946	0.084076	-0.002289	-0.027924
35.906	0.018768	-0.053406	0.034332	0.005951	0.022888	-0.010681	-0.004425	-0.005798	0.046387	-0.012665	0.032196	0.006104	0.016174	0.004272	0.008392	0.016785	-0.003052	-0.14267	-0.056458	0.093384	0.11383	-0.085144	-0.1709	-0.099182	0.1889	-0.010986	0.12726	-0.001221	-0.020905	0.007172	-0.000916	-0.018158
35.907	0.001678	-0.016632	0.053253	0.005646	-0.007629	-0.15259	-0.019836	-0.013428	0.045929	-0.010376	0.000305	0.006409	0.008698	0.041962	-0.002899	0.030365	0.000305	-0.16296	0.001984	0.051575	0.080261	-0.13275	-0.24933	-0.13107	-0.12299	-0.01358	0.16571	-0.006104	-0.13443	-0.000763	-0.001831	-0.01709
35.908	-0.004272	0.055237	0.054932	-0.000305	-0.033875	-0.096588	-0.023193	-0.007935	0.1294	-0.004883	0.020905	0.007477	0.007782	0.016937	0.004272	0.020294	-0.002441	-0.11566	-0.26627	0.057526	-0.026703	-0.074615	-0.25711	-0.14114	-0.47226	-0.010681	0.10452	-0.001678	-0.15762	-0.013123	-0.001678	-0.0177
